<?xml version="1.0" encoding="utf-8"?>
<!-- Generator: Adobe Illustrator 24.3.0, SVG Export Plug-In . SVG Version: 6.00 Build 0)  -->
<svg version="1.1" id="Layer_2_1_" xmlns="http://www.w3.org/2000/svg" xmlns:xlink="http://www.w3.org/1999/xlink" x="0px" y="0px"
	 viewBox="0 0 288 288" style="enable-background:new 0 0 288 288;" xml:space="preserve">
<style type="text/css">
	.st0{fill:#FFF051;}
</style>
<path class="st0" d="M140.5,84.6c-3.8,5.1-7,9.5-10.8,14.5c-14.2-10.6-28.2-21.1-42.5-31.8c-2.4,2.9-4.6,5.6-7,8.6
	c20.7,15.2,41.6,30.5,63.2,46.4c0.3-2.3,0.6-3.7,0.6-5.1c0-13.2,0.2-26.4-0.1-39.7c-0.1-2.5-1.7-5.8-3.8-7.4
	c-16.7-12.7-33.6-25.1-50.4-37.5c-1.7-1.2-3.2-2.5-5.4-4.2c9.9-9.4,19.4-18.5,29.1-27.4c0.7-0.7,3-0.7,3.8-0.1
	c7.5,5.3,14.8,10.9,22.6,16.7c-3.6,5-6.9,9.4-10,13.6c-6.4,0.1-9.1-10.6-18-4.7c10.9,8.1,20.9,15.5,31.5,23.4
	c0.3-2.2,0.6-3.6,0.6-4.9c0-12.3,0.2-24.5-0.1-36.8c-0.1-4.3,1.4-5.5,5.5-5.5c12.6,0,12.6-0.2,12.6,12.6c0,11.1,0,22.2,0,34.9
	c11-8.1,20.9-15.4,30.8-22.6c-3-4.9-3-4.9-7.6-1.6c-2.6,1.9-5.1,3.8-8.4,6.2c-3.6-4.8-6.9-9.2-10.8-14.5
	c7.9-5.9,15.5-11.6,23.3-17.1c0.7-0.5,3,0.1,3.8,0.9c9.4,8.7,18.6,17.6,28.4,26.9c-1.9,1.6-3.4,2.9-4.9,4.1
	c-16.8,12.5-33.6,25-50.5,37.3c-2.9,2.1-4.1,4.4-4.1,8c0.2,12.8,0.1,25.7,0.1,38.5c0,1.6,0.3,3.2,0.5,6c21.8-16,42.7-31.3,63.7-46.7
	c-0.7-1.1-1-1.8-1.4-2.3c-5.5-6.4-5.5-6.3-12.4-1.2c-10.6,7.9-21.1,15.9-31.7,23.8c-1.3,1-2.7,1.8-4.5,3.1c-3.6-4.7-6.9-9.2-10.5-14
	c1.7-1.5,3.1-2.7,4.5-3.8c15.2-11.5,30.6-22.8,45.7-34.4c3.6-2.8,5.8-2.7,8.9,0.7c9.4,10,19.1,19.7,29.3,30.1
	c-13.9,10.2-27.8,20.5-41.7,30.7c-13.8,10.1-27.6,20.3-42.1,30.9c2.4,1.9,4.1,3.3,5.8,4.5c29,21.3,58,42.7,87,64
	c0.9,0.7,2.2,1.1,2.7,2c0.9,1.5,1.7,3.4,1.6,5c-0.1,0.7-2.7,1.6-4.1,1.6c-10.9,0.1-21.9,0.1-32.9,0.1c-1.8,0-3.7,0-6.1,0
	c0,23.8,0,47,0,71c-5.7,0-10.9,0.2-16.1-0.2c-0.8-0.1-2.2-2.4-2.2-3.7c-0.1-27,0-54-0.1-81c0-3.4,1.5-4.3,4.5-4.1
	c2.4,0.1,4.7,0,8.6,0c-2.1-1.9-2.9-2.8-3.8-3.5c-19.4-14.3-38.9-28.6-58.3-43c-2.6-1.9-4.4-2.5-7.4-0.3
	c-19.8,14.8-39.8,29.4-59.7,44c-0.7,0.5-1.2,1.2-1.8,1.8c0.6,0.5,0.8,0.9,1.1,0.9c10.7,0.9,10.7,0.9,10.7,12c0,23.4,0,46.8,0,70.2
	c0,2,0,4.1,0,6.9c-5.4,0-10.3,0-15.1,0c-4,0-3-3.1-3-5.4c-0.1-19.5,0-38.9,0-58.4c0-2.2,0-4.4,0-7.4c-6.9,0-13.1,0-19.3,0
	c-6.4,0-12.8,0.1-19.3-0.1c-1.6-0.1-3.2-1.1-4.8-1.7c0.9-1.9,1.3-4.4,2.8-5.6c5.7-4.6,11.7-8.9,17.7-13.2c24-17.7,48.1-35.3,72.1-53
	c1.3-1,2.6-2.1,4.7-3.7c-28.2-20.7-55.9-41.1-84.8-62.4c4.3-4,8.3-7.4,12-11.1c6.6-6.4,13.1-13.1,19.8-19.4c1.1-1,4.1-1.7,5-1
	C105.3,58.1,122.6,71.2,140.5,84.6z"/>
</svg>
