<svg version="1.1" id="Layer_1" xmlns="http://www.w3.org/2000/svg" xmlns:xlink="http://www.w3.org/1999/xlink" x="0px" y="0px"
	 viewBox="0 0 1920 141.4" enable-background="new 0 0 1920 141.4" xml:space="preserve">
<path fill="#FFE285" d="M1430.6,119.8c-9.8,0.2-14.3-1.8-13.4-12.1c1-12.3,0.3-24.8,0.1-37.2c-0.1-3.4,1.7-8.6-4.7-9
	c-6.3-0.4-6,4.4-5.7,8.2c0.6,7.3-2.1,11.1-10.5,10.1c-7-0.8-11.3,1.4-10.3,8.9c0.9,7-2.5,10-9.9,9.4c-6.4-0.6-8.1,3.3-7.3,8.1
	c2,11.8-4,15.1-15.4,13.6c-2.8-0.4-5.8-0.4-8.7-0.2c-9.2,0.8-13.5-2.5-12.1-11.6c1-6.3-0.9-10.7-9.1-9.9c-6.8,0.7-8.9-3.1-8.2-8.6
	c1-8-3.1-10.6-10.8-9.7c-7.7,0.9-10.7-2.3-9.8-9.3c1.2-9.4-5.4-9.2-12.6-9.5c-8.6-0.3-10.4,3.5-10.1,10.6
	c0.4,13.4-0.5,26.8,0.5,40.2c0.5,6.4-1,8.1-7.5,8.1c-48-0.1-96-0.2-144,0c-7,0-9.5-2.3-9.4-8.7c0.3-13.2,0.2-26.4-0.1-39.6
	c-0.1-3.7,2.5-9.5-4.9-9.8c-7.6-0.3-5.5,5.5-5.4,9.3c0.1,9.1-4.9,11.1-13.6,14.3c-8.6,3.1-13.2,14.4-24.1,16.8
	c-0.6,0.1-0.7,3.7-0.4,5.5c1.5,9.8-3,13.5-13.2,12.2c-3.7-0.5-7.5-0.4-11.2,0c-8.1,0.8-12.8-1.4-11.7-10c0.9-7.2-1.2-12.3-10.6-11.8
	c-6.7,0.4-7.1-4.3-6.8-8.7c0.5-6.8-1.9-10.4-9.7-9.4c-7.7,0.9-12-1.5-10.9-9.5c1.1-8.3-4.3-9.2-11.5-9.3c-8.4-0.1-9.3,4.2-9.2,10.4
	c0.2,12.8-0.3,25.6,0.1,38.4c0.2,7.3-2,10.2-10.5,10.2c-47.2-0.3-94.4-0.3-141.5-0.1c-8.4,0.1-10.7-2.9-10.5-10.3
	c0.4-12.8,0.3-25.6,0-38.4c-0.1-3.7,2.3-9.5-5.2-9.6c-6.4,0-5.3,5-5.2,8.6c0.4,6.7-1.9,10.4-9.8,9.6c-7.9-0.8-11.5,2.8-11,10.3
	c0.3,5.1-1.6,8.5-7.7,7.9c-9-0.9-10.6,4-9.7,10.6c1.4,9.8-3.8,12.3-13,11.2c-2.5-0.3-5-0.3-7.4,0c-11.2,1.5-17.6-1.5-15.6-13.5
	c0.8-4.7-0.8-8.7-7.3-8.1c-8.6,0.9-10.9-3.3-10.1-10.4c0.7-6.1-2.6-8.8-8.8-8c-10.5,1.4-12.8-3.6-11.9-12.1c0.8-7.4-4.1-8.8-11-8.9
	c-7,0-9.6,2.5-9.5,8.9c0.2,14.4-0.2,28.7,0.1,43.1c0.1,6.3-2.1,9-9.3,9c-48-0.2-96-0.2-144,0c-7.1,0-9.4-2.4-9.2-8.9
	c0.3-13.6,0.2-27.2,0-40.7c-0.1-3.5,1.4-8.6-5.2-8.6c-6.3,0.1-5.5,5.1-5.2,8.6c0.5,6.9-2,10.3-9.7,9.4c-8.5-0.9-13.7,1.5-13.1,10.7
	c0.2,3-2.1,5.7-5.3,5.4c-11.5-1.1-12.4,5.2-12,13.5c0.4,7.9-5.2,11.5-12.9,10.2c-6.9-1.2-18.7,6.3-19.1-8.6
	c-0.2-6.6-4.1-11.8-11.7-12.4c-6.8-0.6-8.2-4.1-7.6-9.4c0.6-6.1-1.3-10.1-8.8-9.2c-9.1,1.1-12.9-2.2-12.1-11
	c0.8-7.8-4.8-9.5-11.9-9.9c-9.2-0.5-8.5,5.3-8.6,10.7c-0.1,14-0.3,27.9-0.1,41.9c0,5.8-2.1,8.3-8.7,8.2c-48-0.2-96-0.2-144,0
	c-6.9,0-9.6-2.2-9.5-8.8c0.3-13.6,0.2-27.2,0-40.7c-0.1-3.5,1.5-8.5-5.1-8.7c-6.6-0.2-5.7,4.8-5.3,8.3c0.7,7.5-2.2,11.1-10.5,9.9
	c-8.2-1.2-11.4,2.1-10.5,9.8c0.7,5.7-2,9-8.5,8.5c-8.3-0.7-10,3.8-9.1,10.1c1.3,9.2-3.1,12.8-12.7,11.6c-2.4-0.3-5-0.3-7.4,0
	c-11.2,1.5-17.5-1.4-15.6-13.4c0.7-4.6-0.6-8.8-7.2-8.2c-8.5,0.8-10.9-3.4-10.2-10.5c0.8-7.7-3.6-10.6-11.2-9.9
	c-6.8,0.6-10-1.7-9.4-8.5c0.6-6.2-1.3-10.9-9.5-10.1c-7.1,0.6-9.7-3.5-10-9.1c-0.3-6.2-0.3-12.4,0.1-18.6c0.4-6.8,4-10,11.9-9.9
	c43,0.3,86.1,0.3,129.1,0c8.3-0.1,10.7,2.8,10.4,10.2c-0.5,12.4,0.2,24.8-0.1,37.2c-0.2,7.2,1,11.5,10.6,11.6
	c8.9,0,10.8-3.7,10-10.6c-1-8,2.6-11.6,11.2-10.5c7.7,1,10.4-2.6,10-9.3c-0.2-4,1.3-7.2,6.2-6.7c9.9,1,12.2-3.9,11.2-11.8
	c-0.9-7.4,2.2-10.9,10.5-9.9c3.3,0.4,6.6,0.3,9.9-0.1c11.1-1.3,16.7,2.4,14.9,13.5c-0.9,5.9,2,8.9,8.4,8.2c7.4-0.8,9.6,2.8,8.9,8.9
	c-0.8,6.9,2,10.2,9.8,9.4c7.9-0.7,11.4,2.9,11.1,10.3c-0.1,3.8-0.4,8.4,6,7.9c6.3-0.5,5-5.3,5-8.9c0.2-12.8,0.6-25.6-0.1-38.4
	c-0.5-8.9,3.1-11.2,12.1-11.1c42.6,0.4,85.3,0.2,127.9,0.1c4.6,0,8.9,1.5,13.3,2.1c7,0.9,8.8,4.5,8.7,10.4
	c-0.2,12.4,0.3,24.8-0.2,37.2c-0.3,7.7,3.9,9,10.6,8.9c6.1,0,11-0.7,9.9-8c-1.3-8.5,3.6-11.2,11.5-10.6c7.7,0.6,10.5-2.5,10-9.4
	c-0.4-5.3,1.7-9.4,8.3-9c8.5,0.6,9.8-4.1,8.9-10.2c-1.5-9.8,3.8-12.3,12.9-11.3c2.9,0.3,5.8,0.4,8.7,0c10.8-1.5,15.5,2.3,13.8,12.8
	c-0.8,5.1,0.5,9.6,7.7,8.8c7.9-0.9,10.5,2.9,9.6,9.6c-1,7.6,3.4,9.7,10.4,8.8c8.3-1,11.1,2.6,10.8,9.9c-0.2,3.6-1.1,8.4,5.4,8.4
	c6.6-0.1,5.3-5,5.3-8.5c0.2-13.6,0.4-27.2,0.1-40.7c-0.1-6.3,1.7-9.1,9-9.1c48,0.2,96,0.2,144,0c6.4,0,8.8,2.4,8.7,8.3
	c-0.2,13.6,0.2,27.2-0.1,40.7c-0.1,6.9,2.3,9.8,10,9.6c6.6-0.2,11.6-0.7,10.7-8.7c-0.9-7.3,2.1-11,10.5-10c7.8,1,11.7-2.3,10.8-9.9
	c-0.7-5.8,1.7-9,8.3-8.4c7.2,0.7,10.1-2.8,9.1-9c-1.7-10.4,3-14.2,13.8-12.7c2.8,0.4,5.8,0.2,8.7-0.1c8.9-0.9,14.4,1.3,12.8,11.2
	c-1.1,6.8,1.3,11.4,10,10.6c6.2-0.6,7.9,3,7.3,8.1c-1.1,8.5,3.5,11.2,11.7,10.2c8-0.9,10,3,9.8,9.6c-0.1,3.6-1.3,8.6,5.1,8.7
	c6.4,0.1,5.3-4.9,5.3-8.5c0.2-13.6,0.2-27.2,0-40.7c-0.1-6.2,1.9-9,9.2-8.9c48,0.2,96,0.1,144,0c6.4,0,8.8,2.3,8.7,8.2
	c-0.3,13.6,0.1,27.2-0.2,40.7c-0.2,6.6,1.6,9.9,9.7,9.8c7.6-0.1,12.1-1.7,11.1-9.6c-1-7.2,2.5-10.1,9.9-9.2
	c8.6,1.1,12.3-2.3,11.4-10.5c-0.6-5,1.3-8.6,7.5-7.8c9.1,1.1,10.7-4,9.8-10.6c-1.2-8.7,2.5-12.2,11.8-11.2c3.7,0.4,7.5,0.4,11.2,0
	c9.9-1.2,13.7,2.7,12.3,11.8c-0.9,6.3,1.1,10.8,9.3,10c6.9-0.7,8.5,3.2,8,8.6c-0.6,6.7,1.9,10.6,9.7,9.7c8.3-1,12.5,1.8,11.7,10.3
	c-0.3,3.6-0.7,8.5,5.8,8c5.6-0.4,4.6-4.7,4.6-8c0.1-14,0.2-27.9-0.1-41.9c-0.1-5.8,2-8.4,8.6-8.3c48,0.2,96,0.2,144,0
	c7.1,0,9.5,2.6,9.4,8.9c-0.2,13.6,0.1,27.2-0.2,40.7c-0.1,7,2.6,11,10.6,11.3c8.6,0.3,10.9-4.4,10-11.1c-1.1-7.7,1.9-10.9,10.2-9.9
	c7.3,0.8,12.2-0.9,11.1-9.3c-0.8-6,1.4-9.8,8.8-9.1c6.5,0.7,9.5-2.5,8.5-8.2c-2.1-12.1,4.3-14.9,15.4-13.5c3.7,0.5,7.5,0.3,11.2,0.1
	c7.4-0.6,9.4,2.3,8,9c-1.4,6.9-0.6,13.4,9.8,12.6c6.7-0.5,8.8,2.8,8.3,8.5c-0.6,6.2,2.8,8.6,8.9,7.7c10.4-1.4,13.1,3.6,12.5,12.2
	c-0.3,3.7-1,8.6,5.5,8.3c6.4-0.3,4.9-5.3,4.9-8.8c0.2-13.2,0.4-26.4,0-39.6c-0.3-7.6,2.6-10,10.7-9.9c47.2,0.3,94.3,0.3,141.5,0
	c7.7,0,10.1,2.7,9.9,9.6c-0.4,13.2,0.1,26.4-0.2,39.6c-0.2,6.5,1.3,10.1,9.5,9.7c6.9-0.3,11.5-1.6,10.3-9.1
	c-1.3-7.9,2.5-10.7,10.4-9.7c9.4,1.3,12.8-2.7,11.8-11.2c-0.6-4.7,1.5-7.7,7-7.1c9.7,1.1,11.3-4.1,10.3-11.3
	c-1.1-8.2,2.7-11.4,11.3-10.4c3.7,0.4,7.5,0.4,11.2,0c9.2-1,14.3,1.6,12.9,11.3c-0.8,5.9-0.1,10.9,8.7,10.3c6.4-0.5,8.8,3.3,8.5,8.9
	c-0.3,6.6,2.2,10.1,10,9.6c7.2-0.4,11.8,2.4,11.4,10.2c-0.2,3.6-1,8.6,5.7,8c6.3-0.6,4.7-5.5,4.7-9.1c0.2-13.2-0.1-26.4,0.2-39.6
	c0.1-3.4-1.9-8.8,4.5-9c6.7-0.2,4.6,5.5,4.7,8.8c0.2,27-0.1,53.9,0.2,80.8c0.1,6.3-2.6,8-8.8,7.9c-48-0.1-96-0.2-144,0.1
	c-8,0-9.7-3.1-9.5-9.8c0.3-13.2-0.2-26.4-0.1-39.6c0-4.1,0.4-8.4-5.6-8.1c-4.7,0.2-5.7,3.7-5.1,7.6c1.1,7.5-2,11-10.3,10
	c-8.2-1-11.3,2.4-10.3,10c0.7,4.9-1.1,8.6-7.3,8.1c-8.6-0.8-11.2,3.4-10.1,10.4c1.5,9.8-3.6,12.4-12.8,11.4c-2.9-0.3-5.8-0.4-8.7,0
	c-11.1,1.5-15.2-2.2-14.7-13.3c0.5-11.8-23.7-8.2-19.1-24.3c0.4-1.3-3.8-2.4-6.4-2.4c-0.4,0-0.8-0.1-1.2,0
	c-8.8,1.2-12-2.7-11.1-10.6c1-8.4-5.1-7.8-11.2-8.1c-6.9-0.3-9.6,2.1-9.5,8.7c0.3,13.2-0.3,26.4,0.3,39.6c0.4,8.3-3,10.6-11.5,10.5
	c-23.2-0.4-46.3-0.1-69.5-0.1C1476,119.6,1453.3,119.2,1430.6,119.8z"/>
</svg>
