<?xml version="1.0" encoding="utf-8"?>
<!-- Generator: Adobe Illustrator 24.3.0, SVG Export Plug-In . SVG Version: 6.00 Build 0)  -->
<svg version="1.1" id="Layer_1" xmlns="http://www.w3.org/2000/svg" xmlns:xlink="http://www.w3.org/1999/xlink" x="0px" y="0px"
	 viewBox="0 0 1628.46 192.43" style="enable-background:new 0 0 1628.46 192.43;" xml:space="preserve">
<style type="text/css">
	.st0{fill:#206A5D;}
</style>
<path class="st0" d="M1408.72,83.26c16.12,16.27,32.73,33.03,50.11,50.57c11.55-12.03,22.41-23.34,33.47-34.86
	c11.86,11.9,22.76,22.84,33.94,34.06c17-17.28,33.64-34.2,50.04-50.86c18.12,18.14,35.27,35.31,52.18,52.24
	c-15.39,15.28-31.15,30.93-46.74,46.42c-10.23-10.28-20.99-21.1-31.66-31.83c8.34-8.16,16.98-16.63,26.66-26.11
	c2.78,3.15,6.19,6.75,9.23,10.65c0.61,0.78,0.32,3.15-0.44,3.96c-3.49,3.77-7.29,7.25-11.48,11.31c3.22,2.43,5.95,4.49,8.63,6.51
	c6.42-6.48,13.71-13.84,20.79-20.98c-8.45-8.53-17.19-17.35-26.07-26.32c-27.8,27.92-55.63,55.87-84.03,84.39
	c-28.65-28.62-56.71-56.66-84.38-84.3c-9.31,9.14-18.15,17.83-27.03,26.55c7.27,7.11,14.59,14.28,22.2,21.72
	c2.12-2.34,4.41-4.88,7.65-8.47c-4.56-3.77-9.29-7.66-13.93-11.5c4.95-4.84,8.95-8.74,12.79-12.49
	c8.13,8.11,16.68,16.65,25.07,25.02c-10.69,10.56-21.64,21.38-32.39,32c-15.23-15.22-30.87-30.84-46.27-46.23
	C1374.09,117.77,1391.35,100.57,1408.72,83.26z M1512.62,146.5c-6.65-6.87-13.37-13.81-19.55-20.2
	c-6.64,6.49-13.47,13.17-19.8,19.35c6.59,6.78,13.25,13.64,19.96,20.55C1499.72,159.61,1506.24,152.99,1512.62,146.5z"/>
<path class="st0" d="M1484.71,63.3c-7.14,6.81-14.34,13.67-21.43,20.42c-3.47-3.33-7.15-6.86-11.94-11.46
	c3.95-3.02,7.64-5.84,11.75-8.98c-2.9-2.49-4.73-4.06-6.35-5.45c-5.62,5.65-11.32,11.38-16.87,16.95
	c6.83,6.62,13.96,13.52,21.7,21.03c2.89-3.38,6.52-7.63,10.76-12.59c1.49,3.43,2.31,5.3,3.13,7.17c0.52,0.13,1.04,0.25,1.56,0.38
	c0.09-5.44,1.57-9.68,9.02-8.73c-0.46-0.64-0.92-1.29-1.38-1.93c-1.49-0.7-2.98-1.4-5.1-2.4c4.74-4.3,9.21-8.35,14.07-12.76
	c9.97,10.28,20.36,20.98,30.4,31.32c7.7-7.77,14.67-14.81,21.59-21.8c-5.18-4.97-11.09-10.65-17.39-16.69
	c-1.03,1.13-2.65,2.92-5.25,5.79c3.77,2.84,7.47,5.64,11.08,8.36c-4.59,4.56-8.09,8.03-11.21,11.13
	c-6.69-6.72-13.68-13.74-20.59-20.68c8.68-8.5,18.12-17.74,27.29-26.73c12.72,12.67,26.02,25.9,39,38.82
	c-14.45,14.46-29.08,29.1-44.04,44.06c-9.85-10.25-20.09-20.91-30.88-32.15c-11.14,11.86-21.43,22.83-31.58,33.63
	c-16.03-16.04-30.59-30.62-44.97-45.03c13.2-13.1,26.6-26.4,39.8-39.5C1465.69,44.3,1474.95,53.55,1484.71,63.3z"/>
<path class="st0" d="M1493.29,0c8.93,8.85,18.55,18.39,28.02,27.79c-9.39,9.29-18.93,18.73-28.3,28.01
	c-9.01-9.22-18.5-18.91-27.78-28.41C1474.03,18.81,1483.73,9.34,1493.29,0z"/>
<path class="st0" d="M1137.31,83.26c16.12,16.27,32.73,33.03,50.11,50.57c11.55-12.03,22.41-23.34,33.47-34.86
	c11.86,11.9,22.76,22.84,33.94,34.06c17-17.28,33.64-34.2,50.04-50.86c18.12,18.14,35.27,35.31,52.18,52.24
	c-15.39,15.28-31.15,30.93-46.74,46.42c-10.23-10.28-20.99-21.1-31.66-31.83c8.34-8.16,16.98-16.63,26.66-26.11
	c2.78,3.15,6.19,6.75,9.23,10.65c0.61,0.78,0.32,3.15-0.44,3.96c-3.49,3.77-7.29,7.25-11.48,11.31c3.22,2.43,5.95,4.49,8.63,6.51
	c6.42-6.48,13.71-13.84,20.79-20.98c-8.45-8.53-17.19-17.35-26.07-26.32c-27.8,27.92-55.63,55.87-84.03,84.39
	c-28.65-28.62-56.71-56.66-84.38-84.3c-9.31,9.14-18.15,17.83-27.03,26.55c7.27,7.11,14.59,14.28,22.2,21.72
	c2.12-2.34,4.41-4.88,7.65-8.47c-4.56-3.77-9.29-7.66-13.93-11.5c4.95-4.84,8.95-8.74,12.79-12.49
	c8.13,8.11,16.68,16.65,25.07,25.02c-10.69,10.56-21.64,21.38-32.39,32c-15.23-15.22-30.87-30.84-46.27-46.23
	C1102.68,117.77,1119.94,100.57,1137.31,83.26z M1241.21,146.5c-6.65-6.87-13.37-13.81-19.55-20.2
	c-6.64,6.49-13.47,13.17-19.8,19.35c6.59,6.78,13.25,13.64,19.96,20.55C1228.31,159.61,1234.83,152.99,1241.21,146.5z"/>
<path class="st0" d="M1213.3,63.3c-7.14,6.81-14.34,13.67-21.43,20.42c-3.47-3.33-7.15-6.86-11.94-11.46
	c3.95-3.02,7.64-5.84,11.75-8.98c-2.9-2.49-4.73-4.06-6.35-5.45c-5.62,5.65-11.32,11.38-16.87,16.95
	c6.83,6.62,13.96,13.52,21.7,21.03c2.89-3.38,6.52-7.63,10.76-12.59c1.49,3.43,2.31,5.3,3.13,7.17c0.52,0.13,1.04,0.25,1.56,0.38
	c0.09-5.44,1.57-9.68,9.02-8.73c-0.46-0.64-0.92-1.29-1.38-1.93c-1.49-0.7-2.98-1.4-5.1-2.4c4.74-4.3,9.21-8.35,14.07-12.76
	c9.97,10.28,20.36,20.98,30.4,31.32c7.7-7.77,14.67-14.81,21.59-21.8c-5.18-4.97-11.09-10.65-17.39-16.69
	c-1.03,1.13-2.65,2.92-5.25,5.79c3.77,2.84,7.47,5.64,11.08,8.36c-4.59,4.56-8.09,8.03-11.21,11.13
	c-6.69-6.72-13.68-13.74-20.59-20.68c8.68-8.5,18.12-17.74,27.29-26.73c12.72,12.67,26.02,25.9,39,38.82
	c-14.45,14.46-29.08,29.1-44.04,44.06c-9.85-10.25-20.09-20.91-30.88-32.15c-11.14,11.86-21.43,22.83-31.58,33.63
	c-16.03-16.04-30.59-30.62-44.97-45.03c13.2-13.1,26.6-26.4,39.8-39.5C1194.28,44.3,1203.54,53.55,1213.3,63.3z"/>
<path class="st0" d="M1221.88,0c8.93,8.85,18.55,18.39,28.02,27.79c-9.39,9.29-18.93,18.73-28.3,28.01
	c-9.01-9.22-18.5-18.91-27.78-28.41C1202.62,18.81,1212.32,9.34,1221.88,0z"/>
<path class="st0" d="M865.9,83.26c16.12,16.27,32.73,33.03,50.11,50.57c11.55-12.03,22.41-23.34,33.47-34.86
	c11.86,11.9,22.76,22.84,33.94,34.06c17-17.28,33.64-34.2,50.04-50.86c18.12,18.14,35.27,35.31,52.18,52.24
	c-15.39,15.28-31.15,30.93-46.74,46.42c-10.23-10.28-20.99-21.1-31.66-31.83c8.34-8.16,16.98-16.63,26.66-26.11
	c2.78,3.15,6.19,6.75,9.23,10.65c0.61,0.78,0.32,3.15-0.44,3.96c-3.49,3.77-7.29,7.25-11.48,11.31c3.22,2.43,5.95,4.49,8.63,6.51
	c6.42-6.48,13.71-13.84,20.79-20.98c-8.45-8.53-17.19-17.35-26.07-26.32c-27.8,27.92-55.63,55.87-84.03,84.39
	c-28.65-28.62-56.71-56.66-84.38-84.3c-9.31,9.14-18.15,17.83-27.03,26.55c7.27,7.11,14.59,14.28,22.2,21.72
	c2.12-2.34,4.41-4.88,7.65-8.47c-4.56-3.77-9.29-7.66-13.93-11.5c4.95-4.84,8.95-8.74,12.79-12.49
	c8.13,8.11,16.68,16.65,25.07,25.02c-10.69,10.56-21.64,21.38-32.39,32c-15.23-15.22-30.87-30.84-46.27-46.23
	C831.27,117.77,848.53,100.57,865.9,83.26z M969.8,146.5c-6.65-6.87-13.37-13.81-19.55-20.2c-6.64,6.49-13.47,13.17-19.8,19.35
	c6.59,6.78,13.25,13.64,19.96,20.55C956.9,159.61,963.42,152.99,969.8,146.5z"/>
<path class="st0" d="M941.89,63.3c-7.14,6.81-14.34,13.67-21.43,20.42c-3.47-3.33-7.15-6.86-11.94-11.46
	c3.95-3.02,7.64-5.84,11.75-8.98c-2.9-2.49-4.73-4.06-6.35-5.45c-5.62,5.65-11.32,11.38-16.87,16.95
	c6.83,6.62,13.96,13.52,21.7,21.03c2.89-3.38,6.52-7.63,10.76-12.59c1.49,3.43,2.31,5.3,3.13,7.17c0.52,0.13,1.04,0.25,1.56,0.38
	c0.09-5.44,1.57-9.68,9.02-8.73c-0.46-0.64-0.92-1.29-1.38-1.93c-1.49-0.7-2.98-1.4-5.1-2.4c4.74-4.3,9.21-8.35,14.07-12.76
	c9.97,10.28,20.36,20.98,30.4,31.32c7.7-7.77,14.67-14.81,21.59-21.8c-5.18-4.97-11.09-10.65-17.39-16.69
	c-1.03,1.13-2.65,2.92-5.25,5.79c3.77,2.84,7.47,5.64,11.08,8.36c-4.59,4.56-8.09,8.03-11.21,11.13
	c-6.69-6.72-13.68-13.74-20.59-20.68c8.68-8.5,18.12-17.74,27.29-26.73c12.72,12.67,26.02,25.9,39,38.82
	c-14.45,14.46-29.08,29.1-44.04,44.06c-9.85-10.25-20.09-20.91-30.88-32.15c-11.14,11.86-21.43,22.83-31.58,33.63
	c-16.03-16.04-30.59-30.62-44.97-45.03c13.2-13.1,26.6-26.4,39.8-39.5C922.87,44.3,932.13,53.55,941.89,63.3z"/>
<path class="st0" d="M950.47,0c8.93,8.85,18.55,18.39,28.02,27.79c-9.39,9.29-18.93,18.73-28.3,28.01
	c-9.01-9.22-18.5-18.91-27.78-28.41C931.21,18.81,940.91,9.34,950.47,0z"/>
<path class="st0" d="M594.49,83.26c16.12,16.27,32.73,33.03,50.11,50.57c11.55-12.03,22.41-23.34,33.47-34.86
	c11.86,11.9,22.76,22.84,33.94,34.06c17-17.28,33.64-34.2,50.04-50.86c18.12,18.14,35.27,35.31,52.18,52.24
	c-15.39,15.28-31.15,30.93-46.74,46.42c-10.23-10.28-20.99-21.1-31.66-31.83c8.34-8.16,16.98-16.63,26.66-26.11
	c2.78,3.15,6.19,6.75,9.23,10.65c0.61,0.78,0.32,3.15-0.44,3.96c-3.49,3.77-7.29,7.25-11.48,11.31c3.22,2.43,5.95,4.49,8.63,6.51
	c6.42-6.48,13.71-13.84,20.79-20.98c-8.45-8.53-17.19-17.35-26.07-26.32c-27.8,27.92-55.63,55.87-84.03,84.39
	c-28.65-28.62-56.71-56.66-84.38-84.3c-9.31,9.14-18.15,17.83-27.03,26.55c7.27,7.11,14.59,14.28,22.2,21.72
	c2.12-2.34,4.41-4.88,7.65-8.47c-4.56-3.77-9.29-7.66-13.93-11.5c4.95-4.84,8.95-8.74,12.79-12.49
	c8.13,8.11,16.68,16.65,25.07,25.02c-10.69,10.56-21.64,21.38-32.39,32c-15.23-15.22-30.87-30.84-46.27-46.23
	C559.86,117.77,577.12,100.57,594.49,83.26z M698.39,146.5c-6.65-6.87-13.37-13.81-19.55-20.2c-6.64,6.49-13.47,13.17-19.8,19.35
	c6.59,6.78,13.25,13.64,19.96,20.55C685.49,159.61,692.01,152.99,698.39,146.5z"/>
<path class="st0" d="M670.48,63.3c-7.14,6.81-14.34,13.67-21.43,20.42c-3.47-3.33-7.15-6.86-11.94-11.46
	c3.95-3.02,7.64-5.84,11.75-8.98c-2.9-2.49-4.73-4.06-6.35-5.45c-5.62,5.65-11.32,11.38-16.87,16.95
	c6.83,6.62,13.96,13.52,21.7,21.03c2.89-3.38,6.52-7.63,10.76-12.59c1.49,3.43,2.31,5.3,3.13,7.17c0.52,0.13,1.04,0.25,1.56,0.38
	c0.09-5.44,1.57-9.68,9.02-8.73c-0.46-0.64-0.92-1.29-1.38-1.93c-1.49-0.7-2.98-1.4-5.1-2.4c4.74-4.3,9.21-8.35,14.07-12.76
	c9.97,10.28,20.36,20.98,30.4,31.32c7.7-7.77,14.67-14.81,21.59-21.8c-5.18-4.97-11.09-10.65-17.39-16.69
	c-1.03,1.13-2.65,2.92-5.25,5.79c3.77,2.84,7.47,5.64,11.08,8.36c-4.59,4.56-8.09,8.03-11.21,11.13
	c-6.69-6.72-13.68-13.74-20.59-20.68c8.68-8.5,18.12-17.74,27.29-26.73c12.72,12.67,26.02,25.9,39,38.82
	c-14.45,14.46-29.08,29.1-44.04,44.06c-9.85-10.25-20.09-20.91-30.88-32.15c-11.14,11.86-21.43,22.83-31.58,33.63
	c-16.03-16.04-30.59-30.62-44.97-45.03c13.2-13.1,26.6-26.4,39.8-39.5C651.46,44.3,660.72,53.55,670.48,63.3z"/>
<path class="st0" d="M679.06,0c8.93,8.85,18.55,18.39,28.02,27.79c-9.39,9.29-18.93,18.73-28.3,28.01
	c-9.01-9.22-18.5-18.91-27.78-28.41C659.8,18.81,669.5,9.34,679.06,0z"/>
<path class="st0" d="M323.08,83.26c16.12,16.27,32.73,33.03,50.11,50.57c11.55-12.03,22.41-23.34,33.47-34.86
	c11.86,11.9,22.76,22.84,33.94,34.06c17-17.28,33.64-34.2,50.04-50.86c18.12,18.14,35.27,35.31,52.18,52.24
	c-15.39,15.28-31.15,30.93-46.74,46.42c-10.23-10.28-20.99-21.1-31.66-31.83c8.34-8.16,16.98-16.63,26.66-26.11
	c2.78,3.15,6.19,6.75,9.23,10.65c0.61,0.78,0.32,3.15-0.44,3.96c-3.49,3.77-7.29,7.25-11.48,11.31c3.22,2.43,5.95,4.49,8.63,6.51
	c6.42-6.48,13.71-13.84,20.79-20.98c-8.45-8.53-17.19-17.35-26.07-26.32c-27.8,27.92-55.63,55.87-84.03,84.39
	c-28.65-28.62-56.71-56.66-84.38-84.3c-9.31,9.14-18.15,17.83-27.03,26.55c7.27,7.11,14.59,14.28,22.2,21.72
	c2.12-2.34,4.41-4.88,7.65-8.47c-4.56-3.77-9.29-7.66-13.93-11.5c4.95-4.84,8.95-8.74,12.79-12.49
	c8.13,8.11,16.68,16.65,25.07,25.02c-10.69,10.56-21.64,21.38-32.39,32c-15.23-15.22-30.87-30.84-46.27-46.23
	C288.45,117.77,305.71,100.57,323.08,83.26z M426.98,146.5c-6.65-6.87-13.37-13.81-19.55-20.2c-6.64,6.49-13.47,13.17-19.8,19.35
	c6.59,6.78,13.25,13.64,19.96,20.55C414.08,159.61,420.6,152.99,426.98,146.5z"/>
<path class="st0" d="M399.07,63.3c-7.14,6.81-14.34,13.67-21.43,20.42c-3.47-3.33-7.15-6.86-11.94-11.46
	c3.95-3.02,7.64-5.84,11.75-8.98c-2.9-2.49-4.73-4.06-6.35-5.45c-5.62,5.65-11.32,11.38-16.87,16.95
	c6.83,6.62,13.96,13.52,21.7,21.03c2.89-3.38,6.52-7.63,10.76-12.59c1.49,3.43,2.31,5.3,3.13,7.17c0.52,0.13,1.04,0.25,1.56,0.38
	c0.09-5.44,1.57-9.68,9.02-8.73c-0.46-0.64-0.92-1.29-1.38-1.93c-1.49-0.7-2.98-1.4-5.1-2.4c4.74-4.3,9.21-8.35,14.07-12.76
	c9.97,10.28,20.36,20.98,30.4,31.32c7.7-7.77,14.67-14.81,21.59-21.8c-5.18-4.97-11.09-10.65-17.39-16.69
	c-1.03,1.13-2.65,2.92-5.25,5.79c3.77,2.84,7.47,5.64,11.08,8.36c-4.59,4.56-8.09,8.03-11.21,11.13
	c-6.69-6.72-13.68-13.74-20.59-20.68c8.68-8.5,18.12-17.74,27.29-26.73c12.72,12.67,26.02,25.9,39,38.82
	c-14.45,14.46-29.08,29.1-44.04,44.06c-9.85-10.25-20.09-20.91-30.88-32.15c-11.14,11.86-21.43,22.83-31.58,33.63
	c-16.03-16.04-30.59-30.62-44.97-45.03c13.2-13.1,26.6-26.4,39.8-39.5C380.05,44.3,389.31,53.55,399.07,63.3z"/>
<path class="st0" d="M407.65,0c8.93,8.85,18.55,18.39,28.02,27.79c-9.39,9.29-18.93,18.73-28.3,28.01
	c-9.01-9.22-18.5-18.91-27.78-28.41C388.39,18.81,398.09,9.34,407.65,0z"/>
<path class="st0" d="M51.67,83.26c16.12,16.27,32.73,33.03,50.11,50.57c11.55-12.03,22.41-23.34,33.47-34.86
	c11.86,11.9,22.76,22.84,33.94,34.06c17-17.28,33.64-34.2,50.04-50.86c18.12,18.14,35.27,35.31,52.18,52.24
	c-15.39,15.28-31.15,30.93-46.74,46.42c-10.23-10.28-20.99-21.1-31.66-31.83c8.34-8.16,16.98-16.63,26.66-26.11
	c2.78,3.15,6.19,6.75,9.23,10.65c0.61,0.78,0.32,3.15-0.44,3.96c-3.49,3.77-7.29,7.25-11.48,11.31c3.22,2.43,5.95,4.49,8.63,6.51
	c6.42-6.48,13.71-13.84,20.79-20.98c-8.45-8.53-17.19-17.35-26.07-26.32c-27.8,27.92-55.63,55.87-84.03,84.39
	c-28.65-28.62-56.71-56.66-84.38-84.3c-9.31,9.14-18.15,17.83-27.03,26.55c7.27,7.11,14.59,14.28,22.2,21.72
	c2.12-2.34,4.41-4.88,7.65-8.47c-4.56-3.77-9.29-7.66-13.93-11.5c4.95-4.84,8.95-8.74,12.79-12.49
	c8.13,8.11,16.68,16.65,25.07,25.02c-10.69,10.56-21.64,21.38-32.39,32C31.03,165.75,15.4,150.13,0,134.75
	C17.04,117.77,34.3,100.57,51.67,83.26z M155.57,146.5c-6.65-6.87-13.37-13.81-19.55-20.2c-6.64,6.49-13.47,13.17-19.8,19.35
	c6.59,6.78,13.25,13.64,19.96,20.55C142.67,159.61,149.19,152.99,155.57,146.5z"/>
<path class="st0" d="M127.66,63.3c-7.14,6.81-14.34,13.67-21.43,20.42c-3.47-3.33-7.15-6.86-11.94-11.46
	c3.95-3.02,7.64-5.84,11.75-8.98c-2.9-2.49-4.73-4.06-6.35-5.45c-5.62,5.65-11.32,11.38-16.87,16.95
	c6.83,6.62,13.96,13.52,21.7,21.03c2.89-3.38,6.52-7.63,10.76-12.59c1.49,3.43,2.31,5.3,3.13,7.17c0.52,0.13,1.04,0.25,1.56,0.38
	c0.09-5.44,1.57-9.68,9.02-8.73c-0.46-0.64-0.92-1.29-1.38-1.93c-1.49-0.7-2.98-1.4-5.1-2.4c4.74-4.3,9.21-8.35,14.07-12.76
	c9.97,10.28,20.36,20.98,30.4,31.32c7.7-7.77,14.67-14.81,21.59-21.8c-5.18-4.97-11.09-10.65-17.39-16.69
	c-1.03,1.13-2.65,2.92-5.25,5.79c3.77,2.84,7.47,5.64,11.08,8.36c-4.59,4.56-8.09,8.03-11.21,11.13
	c-6.69-6.72-13.68-13.74-20.59-20.68c8.68-8.5,18.12-17.74,27.29-26.73c12.72,12.67,26.02,25.9,39,38.82
	c-14.45,14.46-29.08,29.1-44.04,44.06c-9.85-10.25-20.09-20.91-30.88-32.15c-11.14,11.86-21.43,22.83-31.58,33.63
	c-16.03-16.04-30.59-30.62-44.97-45.03c13.2-13.1,26.6-26.4,39.8-39.5C108.64,44.3,117.9,53.55,127.66,63.3z"/>
<path class="st0" d="M136.24,0c8.93,8.85,18.55,18.39,28.02,27.79c-9.39,9.29-18.93,18.73-28.3,28.01
	c-9.01-9.22-18.5-18.91-27.78-28.41C116.98,18.81,126.68,9.34,136.24,0z"/>
</svg>
