<svg xmlns="http://www.w3.org/2000/svg" viewBox="0 0 100 100"><defs><style>.cls-1{fill-rule:evenodd;}</style></defs><title>logo-wa</title><g id="ELEMENTS"><path d="M.24,100,7.41,73.25A49.49,49.49,0,1,1,27.13,92.8ZM28.47,82.77l1.69,1A40.18,40.18,0,1,0,16.41,70.16l1,1.7-4,14.94Z"/><path class="cls-1" d="M69,56.26c-2-1.22-4.68-2.57-7.07-1.59-1.84.75-3,3.62-4.2,5.09a1.77,1.77,0,0,1-2.28.5,32.09,32.09,0,0,1-16-13.7,2,2,0,0,1,.25-2.68c1.15-1.35,2.59-2.89,2.9-4.71s-.54-4-1.29-5.58c-1-2.08-2-5-4.12-6.21a5.65,5.65,0,0,0-6.14.91,12.44,12.44,0,0,0-4.31,9.86,13.69,13.69,0,0,0,.39,3.13,25.75,25.75,0,0,0,3,6.92A55.76,55.76,0,0,0,33.25,53a48.28,48.28,0,0,0,13.6,12.62,40.36,40.36,0,0,0,8.47,4c3.32,1.1,6.28,2.24,9.87,1.56,3.75-.71,7.46-3,9-6.65a5.78,5.78,0,0,0,.41-3.4C74,58.78,70.87,57.39,69,56.26Z"/></g></svg>