<svg id="Layer_1" data-name="Layer 1" xmlns="http://www.w3.org/2000/svg" viewBox="0 0 200 200"><defs><style>.cls-1{fill:#206a5d;}</style></defs><title>logo-ig</title><path class="cls-1" d="M153,35.71a11.73,11.73,0,1,0,11.72,11.72A11.73,11.73,0,0,0,153,35.71Z"/><path class="cls-1" d="M100.82,50.75A49.25,49.25,0,1,0,150.08,100,49.3,49.3,0,0,0,100.82,50.75Zm0,80.8A31.55,31.55,0,1,1,132.37,100,31.58,31.58,0,0,1,100.82,131.55Z"/><path class="cls-1" d="M139.92,200H60.07A60.14,60.14,0,0,1,0,139.93V60.07A60.14,60.14,0,0,1,60.07,0h79.85A60.14,60.14,0,0,1,200,60.07v79.86A60.14,60.14,0,0,1,139.92,200ZM60.07,18.82A41.3,41.3,0,0,0,18.81,60.07v79.86a41.31,41.31,0,0,0,41.26,41.26h79.85a41.31,41.31,0,0,0,41.26-41.26V60.07a41.3,41.3,0,0,0-41.26-41.25Z"/></svg>