<svg id="Layer_1" data-name="Layer 1" xmlns="http://www.w3.org/2000/svg" viewBox="0 0 200 200"><defs><style>.cls-1{fill:#206a5d;}</style></defs><title>logo-tw</title><path class="cls-1" d="M199.18,37.43A82.67,82.67,0,0,1,179,43.19c3.25-.55,8-6.43,10-8.82a37.17,37.17,0,0,0,6.71-12.24c.18-.35.31-.78,0-1.05a1.17,1.17,0,0,0-1.07.09,103.47,103.47,0,0,1-24,9.18,1.61,1.61,0,0,1-1.65-.44,19.4,19.4,0,0,0-2.1-2.14,42.11,42.11,0,0,0-11.61-7.12,40.54,40.54,0,0,0-17.82-2.87,42.52,42.52,0,0,0-16.9,4.77,43.63,43.63,0,0,0-13.64,11.14A41.78,41.78,0,0,0,98.65,50a44.17,44.17,0,0,0-.43,17.22c.12,1,0,1.09-.83,1C64.45,63.28,37.15,51.5,15,26.24c-1-1.09-1.48-1.09-2.27.08-9.7,14.54-5,37.9,7.12,49.37,1.61,1.54,3.27,3.06,5.06,4.46-.65.13-8.71-.74-15.9-4.46-1-.6-1.44-.26-1.53.84a25.56,25.56,0,0,0,.26,4.72C9.59,96,19.8,109.61,33.78,114.93a24.64,24.64,0,0,0,5.28,1.62c-3.19.69-6.47,1.19-15.6.48-1.13-.22-1.57.35-1.13,1.44,6.86,18.7,21.67,24.27,32.76,27.44,1.49.26,3,.26,4.46.61-.09.13-.18.13-.26.26-3.68,5.61-16.44,9.78-22.38,11.86a80.15,80.15,0,0,1-34,4.35c-1.83-.27-2.21-.25-2.71,0s-.06.75.52,1.22c2.32,1.53,4.68,2.89,7.08,4.2a112,112,0,0,0,22.72,9.08c40.83,11.28,86.81,3,117.47-27.46,24.07-23.92,32.51-56.91,32.51-89.93,0-1.29,1.52-2,2.43-2.69a79.33,79.33,0,0,0,16-16.63A5,5,0,0,0,200,37.6v-.17C200,36.9,200,37.06,199.18,37.43Z"/></svg>